G04 #@! TF.GenerationSoftware,KiCad,Pcbnew,(5.1.2)-1*
G04 #@! TF.CreationDate,2025-05-27T21:41:05+09:00*
G04 #@! TF.ProjectId,SPV0142LR5H,53505630-3134-4324-9c52-35482e6b6963,rev?*
G04 #@! TF.SameCoordinates,Original*
G04 #@! TF.FileFunction,Copper,L1,Top*
G04 #@! TF.FilePolarity,Positive*
%FSLAX46Y46*%
G04 Gerber Fmt 4.6, Leading zero omitted, Abs format (unit mm)*
G04 Created by KiCad (PCBNEW (5.1.2)-1) date 2025-05-27 21:41:05*
%MOMM*%
%LPD*%
G04 APERTURE LIST*
%ADD10C,1.450000*%
%ADD11R,0.545000X0.650000*%
%ADD12O,1.700000X1.700000*%
%ADD13R,1.700000X1.700000*%
%ADD14C,0.100000*%
%ADD15C,1.250000*%
%ADD16C,0.800000*%
%ADD17C,0.250000*%
%ADD18C,0.254000*%
%ADD19C,0.025400*%
G04 APERTURE END LIST*
D10*
X160000000Y-92500000D03*
D11*
X161477500Y-92975000D03*
X161477500Y-92025000D03*
D12*
X152500000Y-95080000D03*
X152500000Y-92540000D03*
D13*
X152500000Y-90000000D03*
D14*
G36*
X164649504Y-90476204D02*
G01*
X164673773Y-90479804D01*
X164697571Y-90485765D01*
X164720671Y-90494030D01*
X164742849Y-90504520D01*
X164763893Y-90517133D01*
X164783598Y-90531747D01*
X164801777Y-90548223D01*
X164818253Y-90566402D01*
X164832867Y-90586107D01*
X164845480Y-90607151D01*
X164855970Y-90629329D01*
X164864235Y-90652429D01*
X164870196Y-90676227D01*
X164873796Y-90700496D01*
X164875000Y-90725000D01*
X164875000Y-91475000D01*
X164873796Y-91499504D01*
X164870196Y-91523773D01*
X164864235Y-91547571D01*
X164855970Y-91570671D01*
X164845480Y-91592849D01*
X164832867Y-91613893D01*
X164818253Y-91633598D01*
X164801777Y-91651777D01*
X164783598Y-91668253D01*
X164763893Y-91682867D01*
X164742849Y-91695480D01*
X164720671Y-91705970D01*
X164697571Y-91714235D01*
X164673773Y-91720196D01*
X164649504Y-91723796D01*
X164625000Y-91725000D01*
X163375000Y-91725000D01*
X163350496Y-91723796D01*
X163326227Y-91720196D01*
X163302429Y-91714235D01*
X163279329Y-91705970D01*
X163257151Y-91695480D01*
X163236107Y-91682867D01*
X163216402Y-91668253D01*
X163198223Y-91651777D01*
X163181747Y-91633598D01*
X163167133Y-91613893D01*
X163154520Y-91592849D01*
X163144030Y-91570671D01*
X163135765Y-91547571D01*
X163129804Y-91523773D01*
X163126204Y-91499504D01*
X163125000Y-91475000D01*
X163125000Y-90725000D01*
X163126204Y-90700496D01*
X163129804Y-90676227D01*
X163135765Y-90652429D01*
X163144030Y-90629329D01*
X163154520Y-90607151D01*
X163167133Y-90586107D01*
X163181747Y-90566402D01*
X163198223Y-90548223D01*
X163216402Y-90531747D01*
X163236107Y-90517133D01*
X163257151Y-90504520D01*
X163279329Y-90494030D01*
X163302429Y-90485765D01*
X163326227Y-90479804D01*
X163350496Y-90476204D01*
X163375000Y-90475000D01*
X164625000Y-90475000D01*
X164649504Y-90476204D01*
X164649504Y-90476204D01*
G37*
D15*
X164000000Y-91100000D03*
D14*
G36*
X164649504Y-93276204D02*
G01*
X164673773Y-93279804D01*
X164697571Y-93285765D01*
X164720671Y-93294030D01*
X164742849Y-93304520D01*
X164763893Y-93317133D01*
X164783598Y-93331747D01*
X164801777Y-93348223D01*
X164818253Y-93366402D01*
X164832867Y-93386107D01*
X164845480Y-93407151D01*
X164855970Y-93429329D01*
X164864235Y-93452429D01*
X164870196Y-93476227D01*
X164873796Y-93500496D01*
X164875000Y-93525000D01*
X164875000Y-94275000D01*
X164873796Y-94299504D01*
X164870196Y-94323773D01*
X164864235Y-94347571D01*
X164855970Y-94370671D01*
X164845480Y-94392849D01*
X164832867Y-94413893D01*
X164818253Y-94433598D01*
X164801777Y-94451777D01*
X164783598Y-94468253D01*
X164763893Y-94482867D01*
X164742849Y-94495480D01*
X164720671Y-94505970D01*
X164697571Y-94514235D01*
X164673773Y-94520196D01*
X164649504Y-94523796D01*
X164625000Y-94525000D01*
X163375000Y-94525000D01*
X163350496Y-94523796D01*
X163326227Y-94520196D01*
X163302429Y-94514235D01*
X163279329Y-94505970D01*
X163257151Y-94495480D01*
X163236107Y-94482867D01*
X163216402Y-94468253D01*
X163198223Y-94451777D01*
X163181747Y-94433598D01*
X163167133Y-94413893D01*
X163154520Y-94392849D01*
X163144030Y-94370671D01*
X163135765Y-94347571D01*
X163129804Y-94323773D01*
X163126204Y-94299504D01*
X163125000Y-94275000D01*
X163125000Y-93525000D01*
X163126204Y-93500496D01*
X163129804Y-93476227D01*
X163135765Y-93452429D01*
X163144030Y-93429329D01*
X163154520Y-93407151D01*
X163167133Y-93386107D01*
X163181747Y-93366402D01*
X163198223Y-93348223D01*
X163216402Y-93331747D01*
X163236107Y-93317133D01*
X163257151Y-93304520D01*
X163279329Y-93294030D01*
X163302429Y-93285765D01*
X163326227Y-93279804D01*
X163350496Y-93276204D01*
X163375000Y-93275000D01*
X164625000Y-93275000D01*
X164649504Y-93276204D01*
X164649504Y-93276204D01*
G37*
D15*
X164000000Y-93900000D03*
D16*
X160500000Y-94500000D03*
X161000000Y-89000000D03*
D17*
X164000000Y-89774999D02*
X161225001Y-89774999D01*
X164000000Y-91100000D02*
X164000000Y-89774999D01*
X165500000Y-91000000D02*
X164100000Y-91000000D01*
X152500000Y-97500000D02*
X154070001Y-95929999D01*
X152500000Y-95080000D02*
X152500000Y-97500000D01*
X154070001Y-95929999D02*
X165070001Y-95929999D01*
X164100000Y-91000000D02*
X164000000Y-91100000D01*
X165070001Y-95929999D02*
X166000000Y-95000000D01*
X166000000Y-95000000D02*
X166000000Y-91500000D01*
X166000000Y-91500000D02*
X165500000Y-91000000D01*
X163075000Y-92975000D02*
X164000000Y-93900000D01*
X161477500Y-92975000D02*
X163075000Y-92975000D01*
X161100000Y-93900000D02*
X164000000Y-93900000D01*
X160500000Y-94500000D02*
X161100000Y-93900000D01*
X153349999Y-91690001D02*
X152500000Y-92540000D01*
X154540000Y-90500000D02*
X153349999Y-91690001D01*
X160005000Y-90500000D02*
X154540000Y-90500000D01*
X161477500Y-92025000D02*
X161477500Y-91972500D01*
X161477500Y-91972500D02*
X160005000Y-90500000D01*
D18*
G36*
X166139017Y-85841637D02*
G01*
X165841637Y-86139017D01*
X165607988Y-86488698D01*
X165447047Y-86877244D01*
X165365000Y-87289721D01*
X165365000Y-87710279D01*
X165447047Y-88122756D01*
X165607988Y-88511302D01*
X165841637Y-88860983D01*
X166139017Y-89158363D01*
X166488698Y-89392012D01*
X166877244Y-89552953D01*
X167289721Y-89635000D01*
X167710279Y-89635000D01*
X168122756Y-89552953D01*
X168511302Y-89392012D01*
X168860983Y-89158363D01*
X169158363Y-88860983D01*
X169340001Y-88589142D01*
X169340000Y-96410857D01*
X169158363Y-96139017D01*
X168860983Y-95841637D01*
X168511302Y-95607988D01*
X168122756Y-95447047D01*
X167710279Y-95365000D01*
X167289721Y-95365000D01*
X166877244Y-95447047D01*
X166488698Y-95607988D01*
X166139017Y-95841637D01*
X165841637Y-96139017D01*
X165607988Y-96488698D01*
X165447047Y-96877244D01*
X165365000Y-97289721D01*
X165365000Y-97710279D01*
X165447047Y-98122756D01*
X165607988Y-98511302D01*
X165841637Y-98860983D01*
X166139017Y-99158363D01*
X166410856Y-99340000D01*
X150660000Y-99340000D01*
X150660000Y-95436890D01*
X151058524Y-95436890D01*
X151103175Y-95584099D01*
X151228359Y-95846920D01*
X151402412Y-96080269D01*
X151618645Y-96275178D01*
X151868748Y-96424157D01*
X152143109Y-96521481D01*
X152373000Y-96400814D01*
X152373000Y-95207000D01*
X152627000Y-95207000D01*
X152627000Y-96400814D01*
X152856891Y-96521481D01*
X153131252Y-96424157D01*
X153381355Y-96275178D01*
X153597588Y-96080269D01*
X153771641Y-95846920D01*
X153896825Y-95584099D01*
X153941476Y-95436890D01*
X153820155Y-95207000D01*
X152627000Y-95207000D01*
X152373000Y-95207000D01*
X151179845Y-95207000D01*
X151058524Y-95436890D01*
X150660000Y-95436890D01*
X150660000Y-92540000D01*
X151007815Y-92540000D01*
X151036487Y-92831111D01*
X151121401Y-93111034D01*
X151259294Y-93369014D01*
X151444866Y-93595134D01*
X151670986Y-93780706D01*
X151735523Y-93815201D01*
X151618645Y-93884822D01*
X151402412Y-94079731D01*
X151228359Y-94313080D01*
X151103175Y-94575901D01*
X151058524Y-94723110D01*
X151179845Y-94953000D01*
X152373000Y-94953000D01*
X152373000Y-94933000D01*
X152627000Y-94933000D01*
X152627000Y-94953000D01*
X153820155Y-94953000D01*
X153941476Y-94723110D01*
X153896825Y-94575901D01*
X153771641Y-94313080D01*
X153597588Y-94079731D01*
X153381355Y-93884822D01*
X153264477Y-93815201D01*
X153329014Y-93780706D01*
X153555134Y-93595134D01*
X153740706Y-93369014D01*
X153878599Y-93111034D01*
X153963513Y-92831111D01*
X153964672Y-92819345D01*
X153977190Y-92768605D01*
X154008383Y-92612017D01*
X154014683Y-92573482D01*
X158635396Y-92573482D01*
X158675952Y-92838291D01*
X158767391Y-93090100D01*
X158824550Y-93197035D01*
X159060867Y-93259528D01*
X159820395Y-92500000D01*
X159060867Y-91740472D01*
X158824550Y-91802965D01*
X158711150Y-92045678D01*
X158647281Y-92305849D01*
X158635396Y-92573482D01*
X154014683Y-92573482D01*
X154015464Y-92568707D01*
X154033736Y-92426181D01*
X154035965Y-92406324D01*
X154048106Y-92280293D01*
X154059197Y-92184760D01*
X154070907Y-92124383D01*
X154084352Y-92083233D01*
X154106756Y-92038575D01*
X154153500Y-91971796D01*
X154250944Y-91863857D01*
X154854802Y-91260000D01*
X159430254Y-91260000D01*
X159409900Y-91267391D01*
X159302965Y-91324550D01*
X159240472Y-91560867D01*
X160000000Y-92320395D01*
X160014143Y-92306253D01*
X160193748Y-92485858D01*
X160179605Y-92500000D01*
X160193748Y-92514143D01*
X160014143Y-92693748D01*
X160000000Y-92679605D01*
X159240472Y-93439133D01*
X159302965Y-93675450D01*
X159545678Y-93788850D01*
X159707671Y-93828618D01*
X159696063Y-93840226D01*
X159582795Y-94009744D01*
X159504774Y-94198102D01*
X159465000Y-94398061D01*
X159465000Y-94601939D01*
X159504774Y-94801898D01*
X159582795Y-94990256D01*
X159696063Y-95159774D01*
X159840226Y-95303937D01*
X160009744Y-95417205D01*
X160198102Y-95495226D01*
X160398061Y-95535000D01*
X160601939Y-95535000D01*
X160801898Y-95495226D01*
X160990256Y-95417205D01*
X161159774Y-95303937D01*
X161303937Y-95159774D01*
X161417205Y-94990256D01*
X161495226Y-94801898D01*
X161504399Y-94755781D01*
X161507169Y-94746994D01*
X161516219Y-94715463D01*
X161530600Y-94660000D01*
X162578661Y-94660000D01*
X162636595Y-94768386D01*
X162747038Y-94902962D01*
X162881614Y-95013405D01*
X163035150Y-95095472D01*
X163201746Y-95146008D01*
X163375000Y-95163072D01*
X164625000Y-95163072D01*
X164798254Y-95146008D01*
X164964850Y-95095472D01*
X165118386Y-95013405D01*
X165252962Y-94902962D01*
X165363405Y-94768386D01*
X165445472Y-94614850D01*
X165496008Y-94448254D01*
X165513072Y-94275000D01*
X165513072Y-93525000D01*
X165496008Y-93351746D01*
X165445472Y-93185150D01*
X165363405Y-93031614D01*
X165252962Y-92897038D01*
X165118386Y-92786595D01*
X164964850Y-92704528D01*
X164798254Y-92653992D01*
X164625000Y-92636928D01*
X164148199Y-92636928D01*
X164103268Y-92627160D01*
X164067260Y-92620413D01*
X163965532Y-92604375D01*
X163951718Y-92602353D01*
X163865479Y-92590694D01*
X163807981Y-92581415D01*
X163780700Y-92574828D01*
X163768708Y-92570373D01*
X163752434Y-92561611D01*
X163717012Y-92535960D01*
X163646611Y-92471810D01*
X163638803Y-92464002D01*
X163615001Y-92434999D01*
X163524818Y-92360988D01*
X163714250Y-92360000D01*
X163873000Y-92201250D01*
X163873000Y-91227000D01*
X164127000Y-91227000D01*
X164127000Y-92201250D01*
X164285750Y-92360000D01*
X164875000Y-92363072D01*
X164999482Y-92350812D01*
X165119180Y-92314502D01*
X165229494Y-92255537D01*
X165326185Y-92176185D01*
X165405537Y-92079494D01*
X165464502Y-91969180D01*
X165500812Y-91849482D01*
X165513072Y-91725000D01*
X165510000Y-91385750D01*
X165351250Y-91227000D01*
X164127000Y-91227000D01*
X163873000Y-91227000D01*
X162648750Y-91227000D01*
X162490000Y-91385750D01*
X162486928Y-91725000D01*
X162499188Y-91849482D01*
X162535498Y-91969180D01*
X162594463Y-92079494D01*
X162673815Y-92176185D01*
X162721111Y-92215000D01*
X162388072Y-92215000D01*
X162388072Y-91700000D01*
X162375812Y-91575518D01*
X162339502Y-91455820D01*
X162280537Y-91345506D01*
X162201185Y-91248815D01*
X162104494Y-91169463D01*
X161994180Y-91110498D01*
X161874482Y-91074188D01*
X161750000Y-91061928D01*
X161641730Y-91061928D01*
X161054802Y-90475000D01*
X162486928Y-90475000D01*
X162490000Y-90814250D01*
X162648750Y-90973000D01*
X163873000Y-90973000D01*
X163873000Y-89998750D01*
X164127000Y-89998750D01*
X164127000Y-90973000D01*
X165351250Y-90973000D01*
X165510000Y-90814250D01*
X165513072Y-90475000D01*
X165500812Y-90350518D01*
X165464502Y-90230820D01*
X165405537Y-90120506D01*
X165326185Y-90023815D01*
X165229494Y-89944463D01*
X165119180Y-89885498D01*
X164999482Y-89849188D01*
X164875000Y-89836928D01*
X164285750Y-89840000D01*
X164127000Y-89998750D01*
X163873000Y-89998750D01*
X163714250Y-89840000D01*
X163125000Y-89836928D01*
X163000518Y-89849188D01*
X162880820Y-89885498D01*
X162770506Y-89944463D01*
X162673815Y-90023815D01*
X162594463Y-90120506D01*
X162535498Y-90230820D01*
X162499188Y-90350518D01*
X162486928Y-90475000D01*
X161054802Y-90475000D01*
X160568803Y-89989002D01*
X160545001Y-89959999D01*
X160429276Y-89865026D01*
X160297247Y-89794454D01*
X160153986Y-89750997D01*
X160042333Y-89740000D01*
X160042322Y-89740000D01*
X160005000Y-89736324D01*
X159967678Y-89740000D01*
X154577333Y-89740000D01*
X154540000Y-89736323D01*
X154502667Y-89740000D01*
X154391014Y-89750997D01*
X154247753Y-89794454D01*
X154115724Y-89865026D01*
X153999999Y-89959999D01*
X153988072Y-89974532D01*
X153988072Y-89150000D01*
X153975812Y-89025518D01*
X153939502Y-88905820D01*
X153880537Y-88795506D01*
X153801185Y-88698815D01*
X153704494Y-88619463D01*
X153594180Y-88560498D01*
X153474482Y-88524188D01*
X153350000Y-88511928D01*
X151650000Y-88511928D01*
X151525518Y-88524188D01*
X151405820Y-88560498D01*
X151295506Y-88619463D01*
X151198815Y-88698815D01*
X151119463Y-88795506D01*
X151060498Y-88905820D01*
X151024188Y-89025518D01*
X151011928Y-89150000D01*
X151011928Y-90850000D01*
X151024188Y-90974482D01*
X151060498Y-91094180D01*
X151119463Y-91204494D01*
X151198815Y-91301185D01*
X151295506Y-91380537D01*
X151405820Y-91439502D01*
X151474687Y-91460393D01*
X151444866Y-91484866D01*
X151259294Y-91710986D01*
X151121401Y-91968966D01*
X151036487Y-92248889D01*
X151007815Y-92540000D01*
X150660000Y-92540000D01*
X150660000Y-85660000D01*
X166410856Y-85660000D01*
X166139017Y-85841637D01*
X166139017Y-85841637D01*
G37*
X166139017Y-85841637D02*
X165841637Y-86139017D01*
X165607988Y-86488698D01*
X165447047Y-86877244D01*
X165365000Y-87289721D01*
X165365000Y-87710279D01*
X165447047Y-88122756D01*
X165607988Y-88511302D01*
X165841637Y-88860983D01*
X166139017Y-89158363D01*
X166488698Y-89392012D01*
X166877244Y-89552953D01*
X167289721Y-89635000D01*
X167710279Y-89635000D01*
X168122756Y-89552953D01*
X168511302Y-89392012D01*
X168860983Y-89158363D01*
X169158363Y-88860983D01*
X169340001Y-88589142D01*
X169340000Y-96410857D01*
X169158363Y-96139017D01*
X168860983Y-95841637D01*
X168511302Y-95607988D01*
X168122756Y-95447047D01*
X167710279Y-95365000D01*
X167289721Y-95365000D01*
X166877244Y-95447047D01*
X166488698Y-95607988D01*
X166139017Y-95841637D01*
X165841637Y-96139017D01*
X165607988Y-96488698D01*
X165447047Y-96877244D01*
X165365000Y-97289721D01*
X165365000Y-97710279D01*
X165447047Y-98122756D01*
X165607988Y-98511302D01*
X165841637Y-98860983D01*
X166139017Y-99158363D01*
X166410856Y-99340000D01*
X150660000Y-99340000D01*
X150660000Y-95436890D01*
X151058524Y-95436890D01*
X151103175Y-95584099D01*
X151228359Y-95846920D01*
X151402412Y-96080269D01*
X151618645Y-96275178D01*
X151868748Y-96424157D01*
X152143109Y-96521481D01*
X152373000Y-96400814D01*
X152373000Y-95207000D01*
X152627000Y-95207000D01*
X152627000Y-96400814D01*
X152856891Y-96521481D01*
X153131252Y-96424157D01*
X153381355Y-96275178D01*
X153597588Y-96080269D01*
X153771641Y-95846920D01*
X153896825Y-95584099D01*
X153941476Y-95436890D01*
X153820155Y-95207000D01*
X152627000Y-95207000D01*
X152373000Y-95207000D01*
X151179845Y-95207000D01*
X151058524Y-95436890D01*
X150660000Y-95436890D01*
X150660000Y-92540000D01*
X151007815Y-92540000D01*
X151036487Y-92831111D01*
X151121401Y-93111034D01*
X151259294Y-93369014D01*
X151444866Y-93595134D01*
X151670986Y-93780706D01*
X151735523Y-93815201D01*
X151618645Y-93884822D01*
X151402412Y-94079731D01*
X151228359Y-94313080D01*
X151103175Y-94575901D01*
X151058524Y-94723110D01*
X151179845Y-94953000D01*
X152373000Y-94953000D01*
X152373000Y-94933000D01*
X152627000Y-94933000D01*
X152627000Y-94953000D01*
X153820155Y-94953000D01*
X153941476Y-94723110D01*
X153896825Y-94575901D01*
X153771641Y-94313080D01*
X153597588Y-94079731D01*
X153381355Y-93884822D01*
X153264477Y-93815201D01*
X153329014Y-93780706D01*
X153555134Y-93595134D01*
X153740706Y-93369014D01*
X153878599Y-93111034D01*
X153963513Y-92831111D01*
X153964672Y-92819345D01*
X153977190Y-92768605D01*
X154008383Y-92612017D01*
X154014683Y-92573482D01*
X158635396Y-92573482D01*
X158675952Y-92838291D01*
X158767391Y-93090100D01*
X158824550Y-93197035D01*
X159060867Y-93259528D01*
X159820395Y-92500000D01*
X159060867Y-91740472D01*
X158824550Y-91802965D01*
X158711150Y-92045678D01*
X158647281Y-92305849D01*
X158635396Y-92573482D01*
X154014683Y-92573482D01*
X154015464Y-92568707D01*
X154033736Y-92426181D01*
X154035965Y-92406324D01*
X154048106Y-92280293D01*
X154059197Y-92184760D01*
X154070907Y-92124383D01*
X154084352Y-92083233D01*
X154106756Y-92038575D01*
X154153500Y-91971796D01*
X154250944Y-91863857D01*
X154854802Y-91260000D01*
X159430254Y-91260000D01*
X159409900Y-91267391D01*
X159302965Y-91324550D01*
X159240472Y-91560867D01*
X160000000Y-92320395D01*
X160014143Y-92306253D01*
X160193748Y-92485858D01*
X160179605Y-92500000D01*
X160193748Y-92514143D01*
X160014143Y-92693748D01*
X160000000Y-92679605D01*
X159240472Y-93439133D01*
X159302965Y-93675450D01*
X159545678Y-93788850D01*
X159707671Y-93828618D01*
X159696063Y-93840226D01*
X159582795Y-94009744D01*
X159504774Y-94198102D01*
X159465000Y-94398061D01*
X159465000Y-94601939D01*
X159504774Y-94801898D01*
X159582795Y-94990256D01*
X159696063Y-95159774D01*
X159840226Y-95303937D01*
X160009744Y-95417205D01*
X160198102Y-95495226D01*
X160398061Y-95535000D01*
X160601939Y-95535000D01*
X160801898Y-95495226D01*
X160990256Y-95417205D01*
X161159774Y-95303937D01*
X161303937Y-95159774D01*
X161417205Y-94990256D01*
X161495226Y-94801898D01*
X161504399Y-94755781D01*
X161507169Y-94746994D01*
X161516219Y-94715463D01*
X161530600Y-94660000D01*
X162578661Y-94660000D01*
X162636595Y-94768386D01*
X162747038Y-94902962D01*
X162881614Y-95013405D01*
X163035150Y-95095472D01*
X163201746Y-95146008D01*
X163375000Y-95163072D01*
X164625000Y-95163072D01*
X164798254Y-95146008D01*
X164964850Y-95095472D01*
X165118386Y-95013405D01*
X165252962Y-94902962D01*
X165363405Y-94768386D01*
X165445472Y-94614850D01*
X165496008Y-94448254D01*
X165513072Y-94275000D01*
X165513072Y-93525000D01*
X165496008Y-93351746D01*
X165445472Y-93185150D01*
X165363405Y-93031614D01*
X165252962Y-92897038D01*
X165118386Y-92786595D01*
X164964850Y-92704528D01*
X164798254Y-92653992D01*
X164625000Y-92636928D01*
X164148199Y-92636928D01*
X164103268Y-92627160D01*
X164067260Y-92620413D01*
X163965532Y-92604375D01*
X163951718Y-92602353D01*
X163865479Y-92590694D01*
X163807981Y-92581415D01*
X163780700Y-92574828D01*
X163768708Y-92570373D01*
X163752434Y-92561611D01*
X163717012Y-92535960D01*
X163646611Y-92471810D01*
X163638803Y-92464002D01*
X163615001Y-92434999D01*
X163524818Y-92360988D01*
X163714250Y-92360000D01*
X163873000Y-92201250D01*
X163873000Y-91227000D01*
X164127000Y-91227000D01*
X164127000Y-92201250D01*
X164285750Y-92360000D01*
X164875000Y-92363072D01*
X164999482Y-92350812D01*
X165119180Y-92314502D01*
X165229494Y-92255537D01*
X165326185Y-92176185D01*
X165405537Y-92079494D01*
X165464502Y-91969180D01*
X165500812Y-91849482D01*
X165513072Y-91725000D01*
X165510000Y-91385750D01*
X165351250Y-91227000D01*
X164127000Y-91227000D01*
X163873000Y-91227000D01*
X162648750Y-91227000D01*
X162490000Y-91385750D01*
X162486928Y-91725000D01*
X162499188Y-91849482D01*
X162535498Y-91969180D01*
X162594463Y-92079494D01*
X162673815Y-92176185D01*
X162721111Y-92215000D01*
X162388072Y-92215000D01*
X162388072Y-91700000D01*
X162375812Y-91575518D01*
X162339502Y-91455820D01*
X162280537Y-91345506D01*
X162201185Y-91248815D01*
X162104494Y-91169463D01*
X161994180Y-91110498D01*
X161874482Y-91074188D01*
X161750000Y-91061928D01*
X161641730Y-91061928D01*
X161054802Y-90475000D01*
X162486928Y-90475000D01*
X162490000Y-90814250D01*
X162648750Y-90973000D01*
X163873000Y-90973000D01*
X163873000Y-89998750D01*
X164127000Y-89998750D01*
X164127000Y-90973000D01*
X165351250Y-90973000D01*
X165510000Y-90814250D01*
X165513072Y-90475000D01*
X165500812Y-90350518D01*
X165464502Y-90230820D01*
X165405537Y-90120506D01*
X165326185Y-90023815D01*
X165229494Y-89944463D01*
X165119180Y-89885498D01*
X164999482Y-89849188D01*
X164875000Y-89836928D01*
X164285750Y-89840000D01*
X164127000Y-89998750D01*
X163873000Y-89998750D01*
X163714250Y-89840000D01*
X163125000Y-89836928D01*
X163000518Y-89849188D01*
X162880820Y-89885498D01*
X162770506Y-89944463D01*
X162673815Y-90023815D01*
X162594463Y-90120506D01*
X162535498Y-90230820D01*
X162499188Y-90350518D01*
X162486928Y-90475000D01*
X161054802Y-90475000D01*
X160568803Y-89989002D01*
X160545001Y-89959999D01*
X160429276Y-89865026D01*
X160297247Y-89794454D01*
X160153986Y-89750997D01*
X160042333Y-89740000D01*
X160042322Y-89740000D01*
X160005000Y-89736324D01*
X159967678Y-89740000D01*
X154577333Y-89740000D01*
X154540000Y-89736323D01*
X154502667Y-89740000D01*
X154391014Y-89750997D01*
X154247753Y-89794454D01*
X154115724Y-89865026D01*
X153999999Y-89959999D01*
X153988072Y-89974532D01*
X153988072Y-89150000D01*
X153975812Y-89025518D01*
X153939502Y-88905820D01*
X153880537Y-88795506D01*
X153801185Y-88698815D01*
X153704494Y-88619463D01*
X153594180Y-88560498D01*
X153474482Y-88524188D01*
X153350000Y-88511928D01*
X151650000Y-88511928D01*
X151525518Y-88524188D01*
X151405820Y-88560498D01*
X151295506Y-88619463D01*
X151198815Y-88698815D01*
X151119463Y-88795506D01*
X151060498Y-88905820D01*
X151024188Y-89025518D01*
X151011928Y-89150000D01*
X151011928Y-90850000D01*
X151024188Y-90974482D01*
X151060498Y-91094180D01*
X151119463Y-91204494D01*
X151198815Y-91301185D01*
X151295506Y-91380537D01*
X151405820Y-91439502D01*
X151474687Y-91460393D01*
X151444866Y-91484866D01*
X151259294Y-91710986D01*
X151121401Y-91968966D01*
X151036487Y-92248889D01*
X151007815Y-92540000D01*
X150660000Y-92540000D01*
X150660000Y-85660000D01*
X166410856Y-85660000D01*
X166139017Y-85841637D01*
D19*
G36*
X163307126Y-93038732D02*
G01*
X163308231Y-93039631D01*
X163406761Y-93110984D01*
X163408190Y-93111880D01*
X163500366Y-93161507D01*
X163501964Y-93162230D01*
X163590540Y-93195134D01*
X163591981Y-93195574D01*
X163679712Y-93216757D01*
X163680670Y-93216950D01*
X163770312Y-93231416D01*
X163770633Y-93231464D01*
X163864828Y-93244199D01*
X163966032Y-93260154D01*
X164077083Y-93284297D01*
X164192592Y-93319107D01*
X164208014Y-94108014D01*
X163419107Y-94092592D01*
X163384297Y-93977083D01*
X163360154Y-93866032D01*
X163344199Y-93764828D01*
X163331464Y-93670633D01*
X163331416Y-93670312D01*
X163316950Y-93580670D01*
X163316757Y-93579712D01*
X163295574Y-93491981D01*
X163295134Y-93490540D01*
X163262230Y-93401964D01*
X163261507Y-93400366D01*
X163211880Y-93308190D01*
X163210984Y-93306761D01*
X163139631Y-93208231D01*
X163138732Y-93207126D01*
X163048817Y-93108448D01*
X163208448Y-92948817D01*
X163307126Y-93038732D01*
X163307126Y-93038732D01*
G37*
X163307126Y-93038732D02*
X163308231Y-93039631D01*
X163406761Y-93110984D01*
X163408190Y-93111880D01*
X163500366Y-93161507D01*
X163501964Y-93162230D01*
X163590540Y-93195134D01*
X163591981Y-93195574D01*
X163679712Y-93216757D01*
X163680670Y-93216950D01*
X163770312Y-93231416D01*
X163770633Y-93231464D01*
X163864828Y-93244199D01*
X163966032Y-93260154D01*
X164077083Y-93284297D01*
X164192592Y-93319107D01*
X164208014Y-94108014D01*
X163419107Y-94092592D01*
X163384297Y-93977083D01*
X163360154Y-93866032D01*
X163344199Y-93764828D01*
X163331464Y-93670633D01*
X163331416Y-93670312D01*
X163316950Y-93580670D01*
X163316757Y-93579712D01*
X163295574Y-93491981D01*
X163295134Y-93490540D01*
X163262230Y-93401964D01*
X163261507Y-93400366D01*
X163211880Y-93308190D01*
X163210984Y-93306761D01*
X163139631Y-93208231D01*
X163138732Y-93207126D01*
X163048817Y-93108448D01*
X163208448Y-92948817D01*
X163307126Y-93038732D01*
G36*
X161635824Y-92763514D02*
G01*
X161675510Y-92783634D01*
X161675615Y-92783687D01*
X161711801Y-92801616D01*
X161712176Y-92801794D01*
X161746545Y-92817444D01*
X161747211Y-92817725D01*
X161781552Y-92831061D01*
X161782451Y-92831372D01*
X161818551Y-92842360D01*
X161819555Y-92842621D01*
X161859202Y-92851228D01*
X161860165Y-92851398D01*
X161905147Y-92857587D01*
X161905969Y-92857673D01*
X161958074Y-92861413D01*
X161958722Y-92861443D01*
X162007300Y-92862441D01*
X162007300Y-93087558D01*
X161958722Y-93088556D01*
X161958074Y-93088586D01*
X161905969Y-93092326D01*
X161905147Y-93092412D01*
X161860165Y-93098601D01*
X161859202Y-93098771D01*
X161819555Y-93107378D01*
X161818551Y-93107639D01*
X161782451Y-93118627D01*
X161781552Y-93118938D01*
X161747211Y-93132274D01*
X161746545Y-93132555D01*
X161712176Y-93148205D01*
X161711801Y-93148383D01*
X161675615Y-93166312D01*
X161675510Y-93166365D01*
X161635824Y-93186485D01*
X161598644Y-93204905D01*
X161359572Y-92975000D01*
X161598644Y-92745095D01*
X161635824Y-92763514D01*
X161635824Y-92763514D01*
G37*
X161635824Y-92763514D02*
X161675510Y-92783634D01*
X161675615Y-92783687D01*
X161711801Y-92801616D01*
X161712176Y-92801794D01*
X161746545Y-92817444D01*
X161747211Y-92817725D01*
X161781552Y-92831061D01*
X161782451Y-92831372D01*
X161818551Y-92842360D01*
X161819555Y-92842621D01*
X161859202Y-92851228D01*
X161860165Y-92851398D01*
X161905147Y-92857587D01*
X161905969Y-92857673D01*
X161958074Y-92861413D01*
X161958722Y-92861443D01*
X162007300Y-92862441D01*
X162007300Y-93087558D01*
X161958722Y-93088556D01*
X161958074Y-93088586D01*
X161905969Y-93092326D01*
X161905147Y-93092412D01*
X161860165Y-93098601D01*
X161859202Y-93098771D01*
X161819555Y-93107378D01*
X161818551Y-93107639D01*
X161782451Y-93118627D01*
X161781552Y-93118938D01*
X161747211Y-93132274D01*
X161746545Y-93132555D01*
X161712176Y-93148205D01*
X161711801Y-93148383D01*
X161675615Y-93166312D01*
X161675510Y-93166365D01*
X161635824Y-93186485D01*
X161598644Y-93204905D01*
X161359572Y-92975000D01*
X161598644Y-92745095D01*
X161635824Y-92763514D01*
G36*
X164294178Y-93900000D02*
G01*
X163725430Y-94446937D01*
X163619141Y-94389875D01*
X163523534Y-94328415D01*
X163440670Y-94268121D01*
X163365086Y-94210541D01*
X163364825Y-94210347D01*
X163291210Y-94157189D01*
X163290397Y-94156648D01*
X163213383Y-94109591D01*
X163212052Y-94108883D01*
X163126152Y-94069517D01*
X163124511Y-94068898D01*
X163024242Y-94038812D01*
X163022598Y-94038435D01*
X162902472Y-94019217D01*
X162901055Y-94019072D01*
X162767700Y-94012877D01*
X162767700Y-93787123D01*
X162901055Y-93780927D01*
X162902472Y-93780782D01*
X163022598Y-93761564D01*
X163024242Y-93761187D01*
X163124511Y-93731101D01*
X163126152Y-93730482D01*
X163212052Y-93691116D01*
X163213383Y-93690408D01*
X163290397Y-93643351D01*
X163291210Y-93642810D01*
X163364825Y-93589652D01*
X163365086Y-93589458D01*
X163440670Y-93531878D01*
X163523534Y-93471584D01*
X163619141Y-93410124D01*
X163725430Y-93353063D01*
X164294178Y-93900000D01*
X164294178Y-93900000D01*
G37*
X164294178Y-93900000D02*
X163725430Y-94446937D01*
X163619141Y-94389875D01*
X163523534Y-94328415D01*
X163440670Y-94268121D01*
X163365086Y-94210541D01*
X163364825Y-94210347D01*
X163291210Y-94157189D01*
X163290397Y-94156648D01*
X163213383Y-94109591D01*
X163212052Y-94108883D01*
X163126152Y-94069517D01*
X163124511Y-94068898D01*
X163024242Y-94038812D01*
X163022598Y-94038435D01*
X162902472Y-94019217D01*
X162901055Y-94019072D01*
X162767700Y-94012877D01*
X162767700Y-93787123D01*
X162901055Y-93780927D01*
X162902472Y-93780782D01*
X163022598Y-93761564D01*
X163024242Y-93761187D01*
X163124511Y-93731101D01*
X163126152Y-93730482D01*
X163212052Y-93691116D01*
X163213383Y-93690408D01*
X163290397Y-93643351D01*
X163291210Y-93642810D01*
X163364825Y-93589652D01*
X163365086Y-93589458D01*
X163440670Y-93531878D01*
X163523534Y-93471584D01*
X163619141Y-93410124D01*
X163725430Y-93353063D01*
X164294178Y-93900000D01*
G36*
X161129361Y-94030094D02*
G01*
X161076048Y-94087400D01*
X161075329Y-94088243D01*
X161028398Y-94148455D01*
X161027636Y-94149547D01*
X160992804Y-94205460D01*
X160992112Y-94206725D01*
X160966751Y-94260100D01*
X160966242Y-94261333D01*
X160947726Y-94313936D01*
X160947435Y-94314879D01*
X160933136Y-94368471D01*
X160933018Y-94368951D01*
X160920311Y-94425291D01*
X160906605Y-94485976D01*
X160889335Y-94552581D01*
X160868477Y-94618750D01*
X160371535Y-94628465D01*
X160381250Y-94131523D01*
X160447418Y-94110664D01*
X160514023Y-94093394D01*
X160574704Y-94079689D01*
X160631048Y-94066981D01*
X160631528Y-94066863D01*
X160685120Y-94052564D01*
X160686063Y-94052273D01*
X160738666Y-94033757D01*
X160739899Y-94033248D01*
X160793274Y-94007887D01*
X160794539Y-94007195D01*
X160850452Y-93972363D01*
X160851544Y-93971601D01*
X160911756Y-93924670D01*
X160912599Y-93923952D01*
X160969907Y-93870640D01*
X161129361Y-94030094D01*
X161129361Y-94030094D01*
G37*
X161129361Y-94030094D02*
X161076048Y-94087400D01*
X161075329Y-94088243D01*
X161028398Y-94148455D01*
X161027636Y-94149547D01*
X160992804Y-94205460D01*
X160992112Y-94206725D01*
X160966751Y-94260100D01*
X160966242Y-94261333D01*
X160947726Y-94313936D01*
X160947435Y-94314879D01*
X160933136Y-94368471D01*
X160933018Y-94368951D01*
X160920311Y-94425291D01*
X160906605Y-94485976D01*
X160889335Y-94552581D01*
X160868477Y-94618750D01*
X160371535Y-94628465D01*
X160381250Y-94131523D01*
X160447418Y-94110664D01*
X160514023Y-94093394D01*
X160574704Y-94079689D01*
X160631048Y-94066981D01*
X160631528Y-94066863D01*
X160685120Y-94052564D01*
X160686063Y-94052273D01*
X160738666Y-94033757D01*
X160739899Y-94033248D01*
X160793274Y-94007887D01*
X160794539Y-94007195D01*
X160850452Y-93972363D01*
X160851544Y-93971601D01*
X160911756Y-93924670D01*
X160912599Y-93923952D01*
X160969907Y-93870640D01*
X161129361Y-94030094D01*
G36*
X153772956Y-91426754D02*
G01*
X153646394Y-91566947D01*
X153645417Y-91568174D01*
X153549555Y-91705123D01*
X153548607Y-91706711D01*
X153484143Y-91835209D01*
X153483423Y-91836959D01*
X153442971Y-91960759D01*
X153442575Y-91962286D01*
X153418748Y-92085140D01*
X153418601Y-92086093D01*
X153404013Y-92211752D01*
X153403987Y-92211999D01*
X153391271Y-92344000D01*
X153373077Y-92485915D01*
X153342084Y-92641499D01*
X153293378Y-92806433D01*
X152212436Y-92827564D01*
X152233567Y-91746622D01*
X152398500Y-91697915D01*
X152554084Y-91666922D01*
X152695999Y-91648728D01*
X152828000Y-91636012D01*
X152828247Y-91635986D01*
X152953906Y-91621398D01*
X152954859Y-91621251D01*
X153077713Y-91597424D01*
X153079240Y-91597028D01*
X153203040Y-91556576D01*
X153204790Y-91555856D01*
X153333288Y-91491392D01*
X153334876Y-91490444D01*
X153471825Y-91394582D01*
X153473052Y-91393605D01*
X153613246Y-91267044D01*
X153772956Y-91426754D01*
X153772956Y-91426754D01*
G37*
X153772956Y-91426754D02*
X153646394Y-91566947D01*
X153645417Y-91568174D01*
X153549555Y-91705123D01*
X153548607Y-91706711D01*
X153484143Y-91835209D01*
X153483423Y-91836959D01*
X153442971Y-91960759D01*
X153442575Y-91962286D01*
X153418748Y-92085140D01*
X153418601Y-92086093D01*
X153404013Y-92211752D01*
X153403987Y-92211999D01*
X153391271Y-92344000D01*
X153373077Y-92485915D01*
X153342084Y-92641499D01*
X153293378Y-92806433D01*
X152212436Y-92827564D01*
X152233567Y-91746622D01*
X152398500Y-91697915D01*
X152554084Y-91666922D01*
X152695999Y-91648728D01*
X152828000Y-91636012D01*
X152828247Y-91635986D01*
X152953906Y-91621398D01*
X152954859Y-91621251D01*
X153077713Y-91597424D01*
X153079240Y-91597028D01*
X153203040Y-91556576D01*
X153204790Y-91555856D01*
X153333288Y-91491392D01*
X153334876Y-91490444D01*
X153471825Y-91394582D01*
X153473052Y-91393605D01*
X153613246Y-91267044D01*
X153772956Y-91426754D01*
G36*
X161241873Y-91576533D02*
G01*
X161242248Y-91576882D01*
X161284145Y-91614280D01*
X161284634Y-91614694D01*
X161322583Y-91645272D01*
X161323176Y-91645723D01*
X161358543Y-91670948D01*
X161359187Y-91671378D01*
X161393336Y-91692719D01*
X161393932Y-91693069D01*
X161428228Y-91711991D01*
X161428666Y-91712221D01*
X161464473Y-91730195D01*
X161464693Y-91730303D01*
X161503377Y-91748794D01*
X161503386Y-91748798D01*
X161546163Y-91769205D01*
X161586681Y-91789184D01*
X161549077Y-92118721D01*
X161221219Y-92068260D01*
X161213472Y-92029301D01*
X161213468Y-92029283D01*
X161204961Y-91986828D01*
X161204899Y-91986535D01*
X161196260Y-91948145D01*
X161196105Y-91947527D01*
X161186226Y-91912042D01*
X161185932Y-91911122D01*
X161173707Y-91877379D01*
X161173248Y-91876277D01*
X161157571Y-91843116D01*
X161156980Y-91842012D01*
X161136744Y-91808272D01*
X161136110Y-91807316D01*
X161110207Y-91771835D01*
X161109620Y-91771091D01*
X161076945Y-91732709D01*
X161076457Y-91732168D01*
X161044479Y-91698699D01*
X161203643Y-91539535D01*
X161241873Y-91576533D01*
X161241873Y-91576533D01*
G37*
X161241873Y-91576533D02*
X161242248Y-91576882D01*
X161284145Y-91614280D01*
X161284634Y-91614694D01*
X161322583Y-91645272D01*
X161323176Y-91645723D01*
X161358543Y-91670948D01*
X161359187Y-91671378D01*
X161393336Y-91692719D01*
X161393932Y-91693069D01*
X161428228Y-91711991D01*
X161428666Y-91712221D01*
X161464473Y-91730195D01*
X161464693Y-91730303D01*
X161503377Y-91748794D01*
X161503386Y-91748798D01*
X161546163Y-91769205D01*
X161586681Y-91789184D01*
X161549077Y-92118721D01*
X161221219Y-92068260D01*
X161213472Y-92029301D01*
X161213468Y-92029283D01*
X161204961Y-91986828D01*
X161204899Y-91986535D01*
X161196260Y-91948145D01*
X161196105Y-91947527D01*
X161186226Y-91912042D01*
X161185932Y-91911122D01*
X161173707Y-91877379D01*
X161173248Y-91876277D01*
X161157571Y-91843116D01*
X161156980Y-91842012D01*
X161136744Y-91808272D01*
X161136110Y-91807316D01*
X161110207Y-91771835D01*
X161109620Y-91771091D01*
X161076945Y-91732709D01*
X161076457Y-91732168D01*
X161044479Y-91698699D01*
X161203643Y-91539535D01*
X161241873Y-91576533D01*
M02*
