G04 #@! TF.GenerationSoftware,KiCad,Pcbnew,(5.1.2)-1*
G04 #@! TF.CreationDate,2025-05-27T21:41:05+09:00*
G04 #@! TF.ProjectId,SPV0142LR5H,53505630-3134-4324-9c52-35482e6b6963,rev?*
G04 #@! TF.SameCoordinates,Original*
G04 #@! TF.FileFunction,Copper,L2,Bot*
G04 #@! TF.FilePolarity,Positive*
%FSLAX46Y46*%
G04 Gerber Fmt 4.6, Leading zero omitted, Abs format (unit mm)*
G04 Created by KiCad (PCBNEW (5.1.2)-1) date 2025-05-27 21:41:05*
%MOMM*%
%LPD*%
G04 APERTURE LIST*
%ADD10C,1.450000*%
%ADD11O,1.700000X1.700000*%
%ADD12R,1.700000X1.700000*%
%ADD13C,0.800000*%
%ADD14C,0.250000*%
%ADD15C,0.254000*%
%ADD16C,0.025400*%
G04 APERTURE END LIST*
D10*
X160000000Y-92500000D03*
D11*
X152500000Y-95080000D03*
X152500000Y-92540000D03*
D12*
X152500000Y-90000000D03*
D13*
X160500000Y-94500000D03*
X161000000Y-89000000D03*
D14*
X161000000Y-91500000D02*
X161000000Y-89565685D01*
X161000000Y-89565685D02*
X161000000Y-89000000D01*
X160000000Y-92500000D02*
X161000000Y-91500000D01*
X153600000Y-90000000D02*
X158100000Y-94500000D01*
X152500000Y-90000000D02*
X153600000Y-90000000D01*
X158100000Y-94500000D02*
X160500000Y-94500000D01*
D15*
G36*
X166139017Y-85841637D02*
G01*
X165841637Y-86139017D01*
X165607988Y-86488698D01*
X165447047Y-86877244D01*
X165365000Y-87289721D01*
X165365000Y-87710279D01*
X165447047Y-88122756D01*
X165607988Y-88511302D01*
X165841637Y-88860983D01*
X166139017Y-89158363D01*
X166488698Y-89392012D01*
X166877244Y-89552953D01*
X167289721Y-89635000D01*
X167710279Y-89635000D01*
X168122756Y-89552953D01*
X168511302Y-89392012D01*
X168860983Y-89158363D01*
X169158363Y-88860983D01*
X169340001Y-88589142D01*
X169340000Y-96410857D01*
X169158363Y-96139017D01*
X168860983Y-95841637D01*
X168511302Y-95607988D01*
X168122756Y-95447047D01*
X167710279Y-95365000D01*
X167289721Y-95365000D01*
X166877244Y-95447047D01*
X166488698Y-95607988D01*
X166139017Y-95841637D01*
X165841637Y-96139017D01*
X165607988Y-96488698D01*
X165447047Y-96877244D01*
X165365000Y-97289721D01*
X165365000Y-97710279D01*
X165447047Y-98122756D01*
X165607988Y-98511302D01*
X165841637Y-98860983D01*
X166139017Y-99158363D01*
X166410856Y-99340000D01*
X150660000Y-99340000D01*
X150660000Y-95436890D01*
X151058524Y-95436890D01*
X151103175Y-95584099D01*
X151228359Y-95846920D01*
X151402412Y-96080269D01*
X151618645Y-96275178D01*
X151868748Y-96424157D01*
X152143109Y-96521481D01*
X152373000Y-96400814D01*
X152373000Y-95207000D01*
X152627000Y-95207000D01*
X152627000Y-96400814D01*
X152856891Y-96521481D01*
X153131252Y-96424157D01*
X153381355Y-96275178D01*
X153597588Y-96080269D01*
X153771641Y-95846920D01*
X153896825Y-95584099D01*
X153941476Y-95436890D01*
X153820155Y-95207000D01*
X152627000Y-95207000D01*
X152373000Y-95207000D01*
X151179845Y-95207000D01*
X151058524Y-95436890D01*
X150660000Y-95436890D01*
X150660000Y-92540000D01*
X151007815Y-92540000D01*
X151036487Y-92831111D01*
X151121401Y-93111034D01*
X151259294Y-93369014D01*
X151444866Y-93595134D01*
X151670986Y-93780706D01*
X151735523Y-93815201D01*
X151618645Y-93884822D01*
X151402412Y-94079731D01*
X151228359Y-94313080D01*
X151103175Y-94575901D01*
X151058524Y-94723110D01*
X151179845Y-94953000D01*
X152373000Y-94953000D01*
X152373000Y-94933000D01*
X152627000Y-94933000D01*
X152627000Y-94953000D01*
X153820155Y-94953000D01*
X153941476Y-94723110D01*
X153896825Y-94575901D01*
X153771641Y-94313080D01*
X153597588Y-94079731D01*
X153381355Y-93884822D01*
X153264477Y-93815201D01*
X153329014Y-93780706D01*
X153555134Y-93595134D01*
X153740706Y-93369014D01*
X153878599Y-93111034D01*
X153963513Y-92831111D01*
X153992185Y-92540000D01*
X153963513Y-92248889D01*
X153878599Y-91968966D01*
X153740706Y-91710986D01*
X153555134Y-91484866D01*
X153525313Y-91460393D01*
X153594180Y-91439502D01*
X153704494Y-91380537D01*
X153801185Y-91301185D01*
X153812543Y-91287345D01*
X157536201Y-95011003D01*
X157559999Y-95040001D01*
X157588997Y-95063799D01*
X157675723Y-95134974D01*
X157802081Y-95202514D01*
X157807753Y-95205546D01*
X157951014Y-95249003D01*
X158062667Y-95260000D01*
X158062676Y-95260000D01*
X158099999Y-95263676D01*
X158137322Y-95260000D01*
X159698529Y-95260000D01*
X159749855Y-95261853D01*
X159757099Y-95262751D01*
X159765585Y-95267663D01*
X159803974Y-95291921D01*
X159804118Y-95292012D01*
X159856872Y-95325328D01*
X159874004Y-95335772D01*
X159933788Y-95370936D01*
X159962477Y-95386828D01*
X159970650Y-95391083D01*
X160009744Y-95417205D01*
X160198102Y-95495226D01*
X160398061Y-95535000D01*
X160601939Y-95535000D01*
X160801898Y-95495226D01*
X160990256Y-95417205D01*
X161159774Y-95303937D01*
X161303937Y-95159774D01*
X161417205Y-94990256D01*
X161495226Y-94801898D01*
X161535000Y-94601939D01*
X161535000Y-94398061D01*
X161495226Y-94198102D01*
X161417205Y-94009744D01*
X161303937Y-93840226D01*
X161159774Y-93696063D01*
X160990256Y-93582795D01*
X160801898Y-93504774D01*
X160745154Y-93493487D01*
X160759528Y-93439133D01*
X160000000Y-92679605D01*
X159240472Y-93439133D01*
X159302965Y-93675450D01*
X159441123Y-93740000D01*
X158414802Y-93740000D01*
X157248284Y-92573482D01*
X158635396Y-92573482D01*
X158675952Y-92838291D01*
X158767391Y-93090100D01*
X158824550Y-93197035D01*
X159060867Y-93259528D01*
X159820395Y-92500000D01*
X160179605Y-92500000D01*
X160939133Y-93259528D01*
X161175450Y-93197035D01*
X161288850Y-92954322D01*
X161352719Y-92694151D01*
X161364604Y-92426518D01*
X161324048Y-92161709D01*
X161232609Y-91909900D01*
X161175450Y-91802965D01*
X160939133Y-91740472D01*
X160179605Y-92500000D01*
X159820395Y-92500000D01*
X159060867Y-91740472D01*
X158824550Y-91802965D01*
X158711150Y-92045678D01*
X158647281Y-92305849D01*
X158635396Y-92573482D01*
X157248284Y-92573482D01*
X156235669Y-91560867D01*
X159240472Y-91560867D01*
X160000000Y-92320395D01*
X160759528Y-91560867D01*
X160697035Y-91324550D01*
X160454322Y-91211150D01*
X160194151Y-91147281D01*
X159926518Y-91135396D01*
X159661709Y-91175952D01*
X159409900Y-91267391D01*
X159302965Y-91324550D01*
X159240472Y-91560867D01*
X156235669Y-91560867D01*
X154163804Y-89489003D01*
X154140001Y-89459999D01*
X154024276Y-89365026D01*
X153988072Y-89345674D01*
X153988072Y-89150000D01*
X153975812Y-89025518D01*
X153939502Y-88905820D01*
X153880537Y-88795506D01*
X153801185Y-88698815D01*
X153704494Y-88619463D01*
X153594180Y-88560498D01*
X153474482Y-88524188D01*
X153350000Y-88511928D01*
X151650000Y-88511928D01*
X151525518Y-88524188D01*
X151405820Y-88560498D01*
X151295506Y-88619463D01*
X151198815Y-88698815D01*
X151119463Y-88795506D01*
X151060498Y-88905820D01*
X151024188Y-89025518D01*
X151011928Y-89150000D01*
X151011928Y-90850000D01*
X151024188Y-90974482D01*
X151060498Y-91094180D01*
X151119463Y-91204494D01*
X151198815Y-91301185D01*
X151295506Y-91380537D01*
X151405820Y-91439502D01*
X151474687Y-91460393D01*
X151444866Y-91484866D01*
X151259294Y-91710986D01*
X151121401Y-91968966D01*
X151036487Y-92248889D01*
X151007815Y-92540000D01*
X150660000Y-92540000D01*
X150660000Y-85660000D01*
X166410856Y-85660000D01*
X166139017Y-85841637D01*
X166139017Y-85841637D01*
G37*
X166139017Y-85841637D02*
X165841637Y-86139017D01*
X165607988Y-86488698D01*
X165447047Y-86877244D01*
X165365000Y-87289721D01*
X165365000Y-87710279D01*
X165447047Y-88122756D01*
X165607988Y-88511302D01*
X165841637Y-88860983D01*
X166139017Y-89158363D01*
X166488698Y-89392012D01*
X166877244Y-89552953D01*
X167289721Y-89635000D01*
X167710279Y-89635000D01*
X168122756Y-89552953D01*
X168511302Y-89392012D01*
X168860983Y-89158363D01*
X169158363Y-88860983D01*
X169340001Y-88589142D01*
X169340000Y-96410857D01*
X169158363Y-96139017D01*
X168860983Y-95841637D01*
X168511302Y-95607988D01*
X168122756Y-95447047D01*
X167710279Y-95365000D01*
X167289721Y-95365000D01*
X166877244Y-95447047D01*
X166488698Y-95607988D01*
X166139017Y-95841637D01*
X165841637Y-96139017D01*
X165607988Y-96488698D01*
X165447047Y-96877244D01*
X165365000Y-97289721D01*
X165365000Y-97710279D01*
X165447047Y-98122756D01*
X165607988Y-98511302D01*
X165841637Y-98860983D01*
X166139017Y-99158363D01*
X166410856Y-99340000D01*
X150660000Y-99340000D01*
X150660000Y-95436890D01*
X151058524Y-95436890D01*
X151103175Y-95584099D01*
X151228359Y-95846920D01*
X151402412Y-96080269D01*
X151618645Y-96275178D01*
X151868748Y-96424157D01*
X152143109Y-96521481D01*
X152373000Y-96400814D01*
X152373000Y-95207000D01*
X152627000Y-95207000D01*
X152627000Y-96400814D01*
X152856891Y-96521481D01*
X153131252Y-96424157D01*
X153381355Y-96275178D01*
X153597588Y-96080269D01*
X153771641Y-95846920D01*
X153896825Y-95584099D01*
X153941476Y-95436890D01*
X153820155Y-95207000D01*
X152627000Y-95207000D01*
X152373000Y-95207000D01*
X151179845Y-95207000D01*
X151058524Y-95436890D01*
X150660000Y-95436890D01*
X150660000Y-92540000D01*
X151007815Y-92540000D01*
X151036487Y-92831111D01*
X151121401Y-93111034D01*
X151259294Y-93369014D01*
X151444866Y-93595134D01*
X151670986Y-93780706D01*
X151735523Y-93815201D01*
X151618645Y-93884822D01*
X151402412Y-94079731D01*
X151228359Y-94313080D01*
X151103175Y-94575901D01*
X151058524Y-94723110D01*
X151179845Y-94953000D01*
X152373000Y-94953000D01*
X152373000Y-94933000D01*
X152627000Y-94933000D01*
X152627000Y-94953000D01*
X153820155Y-94953000D01*
X153941476Y-94723110D01*
X153896825Y-94575901D01*
X153771641Y-94313080D01*
X153597588Y-94079731D01*
X153381355Y-93884822D01*
X153264477Y-93815201D01*
X153329014Y-93780706D01*
X153555134Y-93595134D01*
X153740706Y-93369014D01*
X153878599Y-93111034D01*
X153963513Y-92831111D01*
X153992185Y-92540000D01*
X153963513Y-92248889D01*
X153878599Y-91968966D01*
X153740706Y-91710986D01*
X153555134Y-91484866D01*
X153525313Y-91460393D01*
X153594180Y-91439502D01*
X153704494Y-91380537D01*
X153801185Y-91301185D01*
X153812543Y-91287345D01*
X157536201Y-95011003D01*
X157559999Y-95040001D01*
X157588997Y-95063799D01*
X157675723Y-95134974D01*
X157802081Y-95202514D01*
X157807753Y-95205546D01*
X157951014Y-95249003D01*
X158062667Y-95260000D01*
X158062676Y-95260000D01*
X158099999Y-95263676D01*
X158137322Y-95260000D01*
X159698529Y-95260000D01*
X159749855Y-95261853D01*
X159757099Y-95262751D01*
X159765585Y-95267663D01*
X159803974Y-95291921D01*
X159804118Y-95292012D01*
X159856872Y-95325328D01*
X159874004Y-95335772D01*
X159933788Y-95370936D01*
X159962477Y-95386828D01*
X159970650Y-95391083D01*
X160009744Y-95417205D01*
X160198102Y-95495226D01*
X160398061Y-95535000D01*
X160601939Y-95535000D01*
X160801898Y-95495226D01*
X160990256Y-95417205D01*
X161159774Y-95303937D01*
X161303937Y-95159774D01*
X161417205Y-94990256D01*
X161495226Y-94801898D01*
X161535000Y-94601939D01*
X161535000Y-94398061D01*
X161495226Y-94198102D01*
X161417205Y-94009744D01*
X161303937Y-93840226D01*
X161159774Y-93696063D01*
X160990256Y-93582795D01*
X160801898Y-93504774D01*
X160745154Y-93493487D01*
X160759528Y-93439133D01*
X160000000Y-92679605D01*
X159240472Y-93439133D01*
X159302965Y-93675450D01*
X159441123Y-93740000D01*
X158414802Y-93740000D01*
X157248284Y-92573482D01*
X158635396Y-92573482D01*
X158675952Y-92838291D01*
X158767391Y-93090100D01*
X158824550Y-93197035D01*
X159060867Y-93259528D01*
X159820395Y-92500000D01*
X160179605Y-92500000D01*
X160939133Y-93259528D01*
X161175450Y-93197035D01*
X161288850Y-92954322D01*
X161352719Y-92694151D01*
X161364604Y-92426518D01*
X161324048Y-92161709D01*
X161232609Y-91909900D01*
X161175450Y-91802965D01*
X160939133Y-91740472D01*
X160179605Y-92500000D01*
X159820395Y-92500000D01*
X159060867Y-91740472D01*
X158824550Y-91802965D01*
X158711150Y-92045678D01*
X158647281Y-92305849D01*
X158635396Y-92573482D01*
X157248284Y-92573482D01*
X156235669Y-91560867D01*
X159240472Y-91560867D01*
X160000000Y-92320395D01*
X160759528Y-91560867D01*
X160697035Y-91324550D01*
X160454322Y-91211150D01*
X160194151Y-91147281D01*
X159926518Y-91135396D01*
X159661709Y-91175952D01*
X159409900Y-91267391D01*
X159302965Y-91324550D01*
X159240472Y-91560867D01*
X156235669Y-91560867D01*
X154163804Y-89489003D01*
X154140001Y-89459999D01*
X154024276Y-89365026D01*
X153988072Y-89345674D01*
X153988072Y-89150000D01*
X153975812Y-89025518D01*
X153939502Y-88905820D01*
X153880537Y-88795506D01*
X153801185Y-88698815D01*
X153704494Y-88619463D01*
X153594180Y-88560498D01*
X153474482Y-88524188D01*
X153350000Y-88511928D01*
X151650000Y-88511928D01*
X151525518Y-88524188D01*
X151405820Y-88560498D01*
X151295506Y-88619463D01*
X151198815Y-88698815D01*
X151119463Y-88795506D01*
X151060498Y-88905820D01*
X151024188Y-89025518D01*
X151011928Y-89150000D01*
X151011928Y-90850000D01*
X151024188Y-90974482D01*
X151060498Y-91094180D01*
X151119463Y-91204494D01*
X151198815Y-91301185D01*
X151295506Y-91380537D01*
X151405820Y-91439502D01*
X151474687Y-91460393D01*
X151444866Y-91484866D01*
X151259294Y-91710986D01*
X151121401Y-91968966D01*
X151036487Y-92248889D01*
X151007815Y-92540000D01*
X150660000Y-92540000D01*
X150660000Y-85660000D01*
X166410856Y-85660000D01*
X166139017Y-85841637D01*
D16*
G36*
X153211873Y-89525661D02*
G01*
X153212049Y-89525831D01*
X153315972Y-89624077D01*
X153316152Y-89624243D01*
X153408645Y-89708370D01*
X153408794Y-89708504D01*
X153494239Y-89783790D01*
X153494319Y-89783859D01*
X153577082Y-89855569D01*
X153661473Y-89928918D01*
X153751982Y-90009277D01*
X153852892Y-90101834D01*
X153968657Y-90211930D01*
X154094621Y-90335946D01*
X153935062Y-90495505D01*
X153831815Y-90410178D01*
X153829157Y-90408488D01*
X153723619Y-90358553D01*
X153721275Y-90357714D01*
X153719857Y-90357443D01*
X153618919Y-90344052D01*
X153616431Y-90343968D01*
X153615092Y-90344127D01*
X153516743Y-90361077D01*
X153513980Y-90361884D01*
X153416207Y-90402970D01*
X153414634Y-90403763D01*
X153315426Y-90462780D01*
X153314712Y-90463238D01*
X153212058Y-90533983D01*
X153211944Y-90534062D01*
X153104006Y-90610207D01*
X152989028Y-90685401D01*
X152872577Y-90749372D01*
X152095897Y-90002477D01*
X153099072Y-89414831D01*
X153211873Y-89525661D01*
X153211873Y-89525661D01*
G37*
X153211873Y-89525661D02*
X153212049Y-89525831D01*
X153315972Y-89624077D01*
X153316152Y-89624243D01*
X153408645Y-89708370D01*
X153408794Y-89708504D01*
X153494239Y-89783790D01*
X153494319Y-89783859D01*
X153577082Y-89855569D01*
X153661473Y-89928918D01*
X153751982Y-90009277D01*
X153852892Y-90101834D01*
X153968657Y-90211930D01*
X154094621Y-90335946D01*
X153935062Y-90495505D01*
X153831815Y-90410178D01*
X153829157Y-90408488D01*
X153723619Y-90358553D01*
X153721275Y-90357714D01*
X153719857Y-90357443D01*
X153618919Y-90344052D01*
X153616431Y-90343968D01*
X153615092Y-90344127D01*
X153516743Y-90361077D01*
X153513980Y-90361884D01*
X153416207Y-90402970D01*
X153414634Y-90403763D01*
X153315426Y-90462780D01*
X153314712Y-90463238D01*
X153212058Y-90533983D01*
X153211944Y-90534062D01*
X153104006Y-90610207D01*
X152989028Y-90685401D01*
X152872577Y-90749372D01*
X152095897Y-90002477D01*
X153099072Y-89414831D01*
X153211873Y-89525661D01*
G36*
X160681678Y-94500000D02*
G01*
X160323418Y-94844522D01*
X160261880Y-94812482D01*
X160202541Y-94777580D01*
X160149968Y-94744378D01*
X160101143Y-94713525D01*
X160100721Y-94713269D01*
X160052714Y-94685484D01*
X160051841Y-94685023D01*
X160001553Y-94660921D01*
X160000321Y-94660409D01*
X159944646Y-94640599D01*
X159943263Y-94640193D01*
X159879096Y-94625287D01*
X159877784Y-94625054D01*
X159802023Y-94615662D01*
X159800919Y-94615574D01*
X159722700Y-94612750D01*
X159722700Y-94387250D01*
X159800919Y-94384425D01*
X159802023Y-94384337D01*
X159877784Y-94374945D01*
X159879096Y-94374712D01*
X159943263Y-94359806D01*
X159944646Y-94359400D01*
X160000321Y-94339590D01*
X160001553Y-94339078D01*
X160051841Y-94314976D01*
X160052714Y-94314515D01*
X160100721Y-94286730D01*
X160101143Y-94286474D01*
X160149968Y-94255621D01*
X160202541Y-94222419D01*
X160261880Y-94187517D01*
X160323418Y-94155478D01*
X160681678Y-94500000D01*
X160681678Y-94500000D01*
G37*
X160681678Y-94500000D02*
X160323418Y-94844522D01*
X160261880Y-94812482D01*
X160202541Y-94777580D01*
X160149968Y-94744378D01*
X160101143Y-94713525D01*
X160100721Y-94713269D01*
X160052714Y-94685484D01*
X160051841Y-94685023D01*
X160001553Y-94660921D01*
X160000321Y-94660409D01*
X159944646Y-94640599D01*
X159943263Y-94640193D01*
X159879096Y-94625287D01*
X159877784Y-94625054D01*
X159802023Y-94615662D01*
X159800919Y-94615574D01*
X159722700Y-94612750D01*
X159722700Y-94387250D01*
X159800919Y-94384425D01*
X159802023Y-94384337D01*
X159877784Y-94374945D01*
X159879096Y-94374712D01*
X159943263Y-94359806D01*
X159944646Y-94359400D01*
X160000321Y-94339590D01*
X160001553Y-94339078D01*
X160051841Y-94314976D01*
X160052714Y-94314515D01*
X160100721Y-94286730D01*
X160101143Y-94286474D01*
X160149968Y-94255621D01*
X160202541Y-94222419D01*
X160261880Y-94187517D01*
X160323418Y-94155478D01*
X160681678Y-94500000D01*
M02*
