G04 #@! TF.GenerationSoftware,KiCad,Pcbnew,(5.1.2)-1*
G04 #@! TF.CreationDate,2025-05-27T21:41:05+09:00*
G04 #@! TF.ProjectId,SPV0142LR5H,53505630-3134-4324-9c52-35482e6b6963,rev?*
G04 #@! TF.SameCoordinates,Original*
G04 #@! TF.FileFunction,Soldermask,Top*
G04 #@! TF.FilePolarity,Negative*
%FSLAX46Y46*%
G04 Gerber Fmt 4.6, Leading zero omitted, Abs format (unit mm)*
G04 Created by KiCad (PCBNEW (5.1.2)-1) date 2025-05-27 21:41:05*
%MOMM*%
%LPD*%
G04 APERTURE LIST*
%ADD10C,0.100000*%
G04 APERTURE END LIST*
D10*
G36*
X167748094Y-95967963D02*
G01*
X167952410Y-96008604D01*
X168234674Y-96125521D01*
X168488705Y-96295259D01*
X168704741Y-96511295D01*
X168874479Y-96765326D01*
X168991396Y-97047590D01*
X169051000Y-97347240D01*
X169051000Y-97652760D01*
X168991396Y-97952410D01*
X168874479Y-98234674D01*
X168704741Y-98488705D01*
X168488705Y-98704741D01*
X168234674Y-98874479D01*
X167952410Y-98991396D01*
X167802585Y-99021198D01*
X167652761Y-99051000D01*
X167347239Y-99051000D01*
X167197415Y-99021198D01*
X167047590Y-98991396D01*
X166765326Y-98874479D01*
X166511295Y-98704741D01*
X166295259Y-98488705D01*
X166125521Y-98234674D01*
X166008604Y-97952410D01*
X165949000Y-97652760D01*
X165949000Y-97347240D01*
X166008604Y-97047590D01*
X166125521Y-96765326D01*
X166295259Y-96511295D01*
X166511295Y-96295259D01*
X166765326Y-96125521D01*
X167047590Y-96008604D01*
X167251906Y-95967963D01*
X167347239Y-95949000D01*
X167652761Y-95949000D01*
X167748094Y-95967963D01*
X167748094Y-95967963D01*
G37*
G36*
X152610443Y-94185519D02*
G01*
X152676627Y-94192037D01*
X152846466Y-94243557D01*
X153002991Y-94327222D01*
X153038729Y-94356552D01*
X153140186Y-94439814D01*
X153204630Y-94518341D01*
X153252778Y-94577009D01*
X153336443Y-94733534D01*
X153387963Y-94903373D01*
X153405359Y-95080000D01*
X153387963Y-95256627D01*
X153336443Y-95426466D01*
X153252778Y-95582991D01*
X153223448Y-95618729D01*
X153140186Y-95720186D01*
X153038729Y-95803448D01*
X153002991Y-95832778D01*
X152846466Y-95916443D01*
X152676627Y-95967963D01*
X152610443Y-95974481D01*
X152544260Y-95981000D01*
X152455740Y-95981000D01*
X152389558Y-95974482D01*
X152323373Y-95967963D01*
X152153534Y-95916443D01*
X151997009Y-95832778D01*
X151961271Y-95803448D01*
X151859814Y-95720186D01*
X151776552Y-95618729D01*
X151747222Y-95582991D01*
X151663557Y-95426466D01*
X151612037Y-95256627D01*
X151594641Y-95080000D01*
X151612037Y-94903373D01*
X151663557Y-94733534D01*
X151747222Y-94577009D01*
X151795370Y-94518341D01*
X151859814Y-94439814D01*
X151961271Y-94356552D01*
X151997009Y-94327222D01*
X152153534Y-94243557D01*
X152323373Y-94192037D01*
X152389557Y-94185519D01*
X152455740Y-94179000D01*
X152544260Y-94179000D01*
X152610443Y-94185519D01*
X152610443Y-94185519D01*
G37*
G36*
X164768604Y-93228347D02*
G01*
X164805144Y-93239432D01*
X164838821Y-93257433D01*
X164868341Y-93281659D01*
X164892567Y-93311179D01*
X164910568Y-93344856D01*
X164921653Y-93381396D01*
X164926000Y-93425538D01*
X164926000Y-94374462D01*
X164921653Y-94418604D01*
X164910568Y-94455144D01*
X164892567Y-94488821D01*
X164868341Y-94518341D01*
X164838821Y-94542567D01*
X164805144Y-94560568D01*
X164768604Y-94571653D01*
X164724462Y-94576000D01*
X163275538Y-94576000D01*
X163231396Y-94571653D01*
X163194856Y-94560568D01*
X163161179Y-94542567D01*
X163131659Y-94518341D01*
X163107433Y-94488821D01*
X163089432Y-94455144D01*
X163078347Y-94418604D01*
X163074000Y-94374462D01*
X163074000Y-93425538D01*
X163078347Y-93381396D01*
X163089432Y-93344856D01*
X163107433Y-93311179D01*
X163131659Y-93281659D01*
X163161179Y-93257433D01*
X163194856Y-93239432D01*
X163231396Y-93228347D01*
X163275538Y-93224000D01*
X164724462Y-93224000D01*
X164768604Y-93228347D01*
X164768604Y-93228347D01*
G37*
G36*
X152610442Y-91645518D02*
G01*
X152676627Y-91652037D01*
X152846466Y-91703557D01*
X153002991Y-91787222D01*
X153010331Y-91793246D01*
X153140186Y-91899814D01*
X153223448Y-92001271D01*
X153252778Y-92037009D01*
X153336443Y-92193534D01*
X153387963Y-92363373D01*
X153405359Y-92540000D01*
X153387963Y-92716627D01*
X153336443Y-92886466D01*
X153252778Y-93042991D01*
X153229864Y-93070912D01*
X153140186Y-93180186D01*
X153046059Y-93257433D01*
X153002991Y-93292778D01*
X152846466Y-93376443D01*
X152676627Y-93427963D01*
X152610443Y-93434481D01*
X152544260Y-93441000D01*
X152455740Y-93441000D01*
X152389557Y-93434481D01*
X152323373Y-93427963D01*
X152153534Y-93376443D01*
X151997009Y-93292778D01*
X151953941Y-93257433D01*
X151859814Y-93180186D01*
X151770136Y-93070912D01*
X151747222Y-93042991D01*
X151663557Y-92886466D01*
X151612037Y-92716627D01*
X151594641Y-92540000D01*
X151612037Y-92363373D01*
X151663557Y-92193534D01*
X151747222Y-92037009D01*
X151776552Y-92001271D01*
X151859814Y-91899814D01*
X151989669Y-91793246D01*
X151997009Y-91787222D01*
X152153534Y-91703557D01*
X152323373Y-91652037D01*
X152389558Y-91645518D01*
X152455740Y-91639000D01*
X152544260Y-91639000D01*
X152610442Y-91645518D01*
X152610442Y-91645518D01*
G37*
G36*
X161760000Y-93310000D02*
G01*
X161195000Y-93310000D01*
X161195000Y-92640000D01*
X161760000Y-92640000D01*
X161760000Y-93310000D01*
X161760000Y-93310000D01*
G37*
G36*
X160214390Y-91793245D02*
G01*
X160348151Y-91848651D01*
X160348153Y-91848652D01*
X160468535Y-91929088D01*
X160570912Y-92031465D01*
X160651348Y-92151847D01*
X160651349Y-92151849D01*
X160706755Y-92285610D01*
X160735000Y-92427608D01*
X160735000Y-92572392D01*
X160706755Y-92714390D01*
X160705829Y-92716625D01*
X160651348Y-92848153D01*
X160570912Y-92968535D01*
X160468535Y-93070912D01*
X160348153Y-93151348D01*
X160348152Y-93151349D01*
X160348151Y-93151349D01*
X160214390Y-93206755D01*
X160072392Y-93235000D01*
X159927608Y-93235000D01*
X159785610Y-93206755D01*
X159651849Y-93151349D01*
X159651848Y-93151349D01*
X159651847Y-93151348D01*
X159531465Y-93070912D01*
X159429088Y-92968535D01*
X159348652Y-92848153D01*
X159294171Y-92716625D01*
X159293245Y-92714390D01*
X159265000Y-92572392D01*
X159265000Y-92427608D01*
X159293245Y-92285610D01*
X159348651Y-92151849D01*
X159348652Y-92151847D01*
X159429088Y-92031465D01*
X159531465Y-91929088D01*
X159651847Y-91848652D01*
X159651849Y-91848651D01*
X159785610Y-91793245D01*
X159927608Y-91765000D01*
X160072392Y-91765000D01*
X160214390Y-91793245D01*
X160214390Y-91793245D01*
G37*
G36*
X161760000Y-92360000D02*
G01*
X161195000Y-92360000D01*
X161195000Y-91690000D01*
X161760000Y-91690000D01*
X161760000Y-92360000D01*
X161760000Y-92360000D01*
G37*
G36*
X164768604Y-90428347D02*
G01*
X164805144Y-90439432D01*
X164838821Y-90457433D01*
X164868341Y-90481659D01*
X164892567Y-90511179D01*
X164910568Y-90544856D01*
X164921653Y-90581396D01*
X164926000Y-90625538D01*
X164926000Y-91574462D01*
X164921653Y-91618604D01*
X164910568Y-91655144D01*
X164892567Y-91688821D01*
X164868341Y-91718341D01*
X164838821Y-91742567D01*
X164805144Y-91760568D01*
X164768604Y-91771653D01*
X164724462Y-91776000D01*
X163275538Y-91776000D01*
X163231396Y-91771653D01*
X163194856Y-91760568D01*
X163161179Y-91742567D01*
X163131659Y-91718341D01*
X163107433Y-91688821D01*
X163089432Y-91655144D01*
X163078347Y-91618604D01*
X163074000Y-91574462D01*
X163074000Y-90625538D01*
X163078347Y-90581396D01*
X163089432Y-90544856D01*
X163107433Y-90511179D01*
X163131659Y-90481659D01*
X163161179Y-90457433D01*
X163194856Y-90439432D01*
X163231396Y-90428347D01*
X163275538Y-90424000D01*
X164724462Y-90424000D01*
X164768604Y-90428347D01*
X164768604Y-90428347D01*
G37*
G36*
X153401000Y-90901000D02*
G01*
X151599000Y-90901000D01*
X151599000Y-89099000D01*
X153401000Y-89099000D01*
X153401000Y-90901000D01*
X153401000Y-90901000D01*
G37*
G36*
X167802585Y-85978802D02*
G01*
X167952410Y-86008604D01*
X168234674Y-86125521D01*
X168488705Y-86295259D01*
X168704741Y-86511295D01*
X168874479Y-86765326D01*
X168991396Y-87047590D01*
X169051000Y-87347240D01*
X169051000Y-87652760D01*
X168991396Y-87952410D01*
X168874479Y-88234674D01*
X168704741Y-88488705D01*
X168488705Y-88704741D01*
X168234674Y-88874479D01*
X167952410Y-88991396D01*
X167802585Y-89021198D01*
X167652761Y-89051000D01*
X167347239Y-89051000D01*
X167197415Y-89021198D01*
X167047590Y-88991396D01*
X166765326Y-88874479D01*
X166511295Y-88704741D01*
X166295259Y-88488705D01*
X166125521Y-88234674D01*
X166008604Y-87952410D01*
X165949000Y-87652760D01*
X165949000Y-87347240D01*
X166008604Y-87047590D01*
X166125521Y-86765326D01*
X166295259Y-86511295D01*
X166511295Y-86295259D01*
X166765326Y-86125521D01*
X167047590Y-86008604D01*
X167197415Y-85978802D01*
X167347239Y-85949000D01*
X167652761Y-85949000D01*
X167802585Y-85978802D01*
X167802585Y-85978802D01*
G37*
M02*
